<svg aria-hidden="true" style="width: 0; height: 0; position: absolute; overflow: hidden" version="1.1" xmlns="http://www.w3.org/2000/svg" xmlns:xlink="http://www.w3.org/1999/xlink">
  <defs>
    <symbol id="icon-three-lines" viewBox="0 0 512 512">
      <path fill="none" stroke="currentColor" stroke-linecap="square" stroke-linejoin="round" stroke-width="44" d="M102 256h308M102 176h308M102 336h308"></path>
    </symbol>
    <symbol id="icon-x" viewBox="0 0 512 512">
      <path fill="none" stroke="currentColor" stroke-linecap="round" stroke-linejoin="round" stroke-width="32" d="M368 368L144 144M368 144L144 368"></path>
    </symbol>
    <symbol id="icon-arrow-down" viewBox="0 0 512 512">
      <path fill="none" stroke="currentColor" stroke-linecap="square" stroke-miterlimit="10" stroke-width="48" d="M112 184l144 144 144-144"></path>
    </symbol>
    <symbol id="icon-html" viewBox="0 0 299.215 299.215">
      <g>
        <path d="M22.347,0c-2.75,0-4.799,2.241-4.555,4.98l23.184,260.047c0.244,2.739,2.611,5.582,5.262,6.318
          l98.381,27.316c2.65,0.736,6.986,0.736,9.637,0.002l98.68-27.361c2.65-0.735,5.02-3.578,5.264-6.316L281.422,4.98
          c0.246-2.739-1.805-4.98-4.555-4.98H22.347z M232.049,59.641c-0.219,2.443-0.598,6.684-0.842,9.423l-0.611,6.823
          c-0.246,2.738-0.596,6.654-0.781,8.701c-0.184,2.048-0.359,3.723-0.391,3.723c-0.031,0-2.307,0-5.057,0h-69.76
          c-2.75,0-5.023,0-5.053,0s-2.305,0-5.055,0h-36.74c-2.75,0-4.799,2.241-4.555,4.98l2.143,23.955c0.244,2.738,2.695,4.98,5.445,4.98
          H144.5c2.75,0,5.025,0,5.055,0s2.303,0,5.053,0h57.939c2.75,0,7.006,0,9.457,0c2.449,0,4.273,1.999,4.051,4.442
          c-0.223,2.443-0.604,6.685-0.848,9.423l-6.891,77.228c-0.246,2.739-0.557,6.238-0.691,7.776c-0.137,1.537-2.416,3.396-5.066,4.131
          l-58.133,16.119c-2.65,0.734-4.852,1.342-4.893,1.351c-0.041,0.009-2.242-0.586-4.893-1.321l-58.195-16.148
          c-2.65-0.735-5.018-3.578-5.262-6.317l-3.746-42.045c-0.244-2.739,1.807-4.98,4.557-4.98h5.311c2.75,0,7.25,0,10,0h7.92
          c2.75,0,5.199,2.241,5.445,4.98l1.469,16.459c0.244,2.739,2.615,5.566,5.271,6.283l27.221,7.351
          c2.654,0.717,4.836,1.304,4.848,1.304s2.193-0.588,4.848-1.305l27.27-7.369c2.654-0.717,5.027-3.545,5.273-6.283l2.957-32.976
          c0.246-2.739-1.803-4.98-4.553-4.98h-30.666c-2.75,0-5.023,0-5.053,0s-2.305,0-5.055,0H80.511c-2.75,0-5.199-2.242-5.443-4.98
          l-7.256-81.306c-0.244-2.739-0.623-6.979-0.842-9.423c-0.217-2.443,1.854-4.442,4.604-4.442H144.5c2.75,0,5.025,0,5.055,0
          s2.303,0,5.053,0h72.838C230.195,55.198,232.267,57.197,232.049,59.641z"></path>
      </g>
    </symbol>
    <symbol id="icon-css" viewBox="0 0 470.699 470.699">
      <path d="M426.981,0H43.701C34.52,0,27.632,7.769,28.442,16.949L63.45,409.254c0.811,9.173,8.745,18.774,17.644,21.253
    l138.006,38.335c8.887,2.463,23.413,2.479,32.313,0.032l138.177-38.281c8.901-2.472,16.835-11.986,17.645-21.175l35.023-392.469
    C443.068,7.769,436.209,0,426.981,0z M360.51,141.611c-0.006,0.06-0.053,0.107-0.112,0.117c-0.06,0.01-0.118-0.021-0.144-0.077
    L252.13,185.96c-1.54,0.631-2.418,2.264-2.098,3.897c0.322,1.633,1.754,2.811,3.419,2.811h84.103c4.474,0,8.736,1.9,11.728,5.227
    c2.991,3.327,4.429,7.768,3.954,12.216l-13.141,123.273c-0.645,6.048-4.709,11.186-10.447,13.205l-89.269,31.41
    c-3.362,1.184-7.027,1.193-10.397,0.025l-88.852-30.778c-5.773-2-9.871-7.153-10.52-13.228l-5.957-55.828
    c-0.313-2.931,0.634-5.857,2.604-8.048c1.971-2.192,4.779-3.444,7.727-3.444h24.725c5.313,0,9.769,4.007,10.331,9.289l3.655,34.316
    l61.521,21.385l61.803-21.58l7.559-71.17H129.835c-5.297,0-9.746-3.985-10.327-9.25l-3.327-30.164
    c-0.508-4.601,2.088-8.982,6.366-10.745l111.837-46.109c1.269-0.523,1.99-1.868,1.724-3.214c-0.267-1.345-1.446-2.314-2.817-2.314
    H115.542c-3.545,0-6.518-2.677-6.888-6.201l-3.406-32.421c-0.205-1.951,0.428-3.898,1.741-5.357
    c1.313-1.458,3.184-2.291,5.146-2.291h246.379c1.973,0,3.852,0.842,5.166,2.313c1.314,1.472,1.938,3.434,1.715,5.394L360.51,141.611
    z"></path>
    </symbol>
    <symbol id="icon-js" viewBox="0 0 24 24">
      <path d="M0 0h24v24H0V0zm22.034 18.276c-.175-1.095-.888-2.015-3.003-2.873-.736-.345-1.554-.585-1.797-1.14-.091-.33-.105-.51-.046-.705.15-.646.915-.84 1.515-.66.39.12.75.42.976.9 1.034-.676 1.034-.676 1.755-1.125-.27-.42-.404-.601-.586-.78-.63-.705-1.469-1.065-2.834-1.034l-.705.089c-.676.165-1.32.525-1.71 1.005-1.14 1.291-.811 3.541.569 4.471 1.365 1.02 3.361 1.244 3.616 2.205.24 1.17-.87 1.545-1.966 1.41-.811-.18-1.26-.586-1.755-1.336l-1.83 1.051c.21.48.45.689.81 1.109 1.74 1.756 6.09 1.666 6.871-1.004.029-.09.24-.705.074-1.65l.046.067zm-8.983-7.245h-2.248c0 1.938-.009 3.864-.009 5.805 0 1.232.063 2.363-.138 2.711-.33.689-1.18.601-1.566.48-.396-.196-.597-.466-.83-.855-.063-.105-.11-.196-.127-.196l-1.825 1.125c.305.63.75 1.172 1.324 1.517.855.51 2.004.675 3.207.405.783-.226 1.458-.691 1.811-1.411.51-.93.402-2.07.397-3.346.012-2.054 0-4.109 0-6.179l.004-.056z"></path>
    </symbol>
    <symbol id="icon-react" viewBox="0 -1.5 27 27">
      <path d="m15.902 11.974c0 1.331-1.079 2.41-2.41 2.41s-2.41-1.079-2.41-2.41 1.079-2.41 2.41-2.41 2.41 1.079 2.41 2.41z"></path><path d="m13.491 17.494c-.201.005-.438.008-.676.008-2.811 0-5.522-.425-8.073-1.214l.193.051c-1.351-.436-2.522-1.079-3.541-1.903l.021.016c-.789-.571-1.32-1.455-1.41-2.467l-.001-.013c0-1.594 1.747-3.154 4.681-4.172 2.512-.827 5.403-1.304 8.405-1.304.139 0 .278.001.417.003h-.021c.116-.002.252-.003.389-.003 2.965 0 5.82.469 8.496 1.337l-.195-.055c1.305.424 2.438 1.036 3.433 1.814l-.024-.018c.775.546 1.298 1.404 1.386 2.387l.001.013c0 1.656-1.954 3.332-5.103 4.374-2.363.729-5.08 1.149-7.895 1.149-.17 0-.339-.002-.508-.005h.025zm0-9.84c-.106-.002-.232-.002-.358-.002-2.881 0-5.656.452-8.259 1.289l.191-.053c-2.698.941-3.908 2.228-3.908 3.087 0 .893 1.301 2.3 4.153 3.274 2.249.697 4.834 1.099 7.513 1.099.235 0 .469-.003.702-.009l-.034.001c.146.003.318.005.49.005 2.684 0 5.274-.4 7.715-1.143l-.187.049c2.96-.984 4.32-2.391 4.32-3.28-.102-.638-.462-1.176-.966-1.515l-.008-.005c-.866-.674-1.876-1.217-2.97-1.574l-.07-.02c-2.368-.766-5.093-1.208-7.92-1.208-.142 0-.283.001-.424.003h.021z"></path><path d="m8.023 23.986c-.016 0-.035.001-.053.001-.453 0-.878-.119-1.245-.327l.013.007c-1.378-.8-1.858-3.092-1.28-6.141.697-3.128 1.827-5.894 3.344-8.4l-.069.124c1.499-2.655 3.31-4.926 5.425-6.872l.02-.018c.923-.844 2.003-1.537 3.187-2.028l.073-.027c.407-.196.885-.31 1.39-.31.501 0 .976.113 1.4.314l-.02-.008c1.435.826 1.911 3.36 1.238 6.606-.72 2.967-1.818 5.58-3.262 7.959l.07-.123c-1.452 2.63-3.209 4.882-5.266 6.819l-.014.013c-.958.877-2.083 1.59-3.321 2.082l-.074.026c-.46.181-.992.292-1.549.305h-.006zm1.205-14.447.499.288c-1.381 2.28-2.465 4.926-3.106 7.74l-.034.18c-.533 2.809-.019 4.498.72 4.926.191.102.417.161.657.161.02 0 .041 0 .061-.001h-.003c.955 0 2.458-.605 4.196-2.122 1.976-1.867 3.654-4.023 4.972-6.404l.068-.135c1.318-2.156 2.371-4.653 3.025-7.307l.038-.182c.629-3.058.086-4.93-.686-5.378-.238-.094-.514-.148-.802-.148-.364 0-.708.087-1.012.24l.013-.006c-1.118.465-2.078 1.086-2.907 1.846l.007-.006c-2.041 1.881-3.772 4.057-5.136 6.468l-.069.132z"></path><path d="m18.96 24c-1.306 0-2.96-.787-4.69-2.276-2.175-1.983-4.017-4.282-5.464-6.834l-.072-.137c-1.43-2.349-2.551-5.075-3.215-7.975l-.036-.185c-.162-.709-.255-1.522-.255-2.357 0-.527.037-1.044.108-1.551l-.007.058c.085-.998.608-1.858 1.372-2.399l.01-.007c1.43-.83 3.865.024 6.342 2.228 2.022 1.914 3.748 4.113 5.118 6.54l.072.138c1.428 2.297 2.557 4.961 3.242 7.798l.038.186c.163.709.257 1.524.257 2.36 0 .577-.044 1.143-.13 1.696l.008-.062c-.103 1.022-.644 1.901-1.429 2.456l-.011.007c-.348.199-.764.316-1.207.316-.018 0-.036 0-.054-.001h.003zm-9.228-9.823c1.458 2.571 3.217 4.771 5.271 6.656l.02.018c2.166 1.863 3.884 2.266 4.628 1.834.773-.446 1.339-2.276.754-5.233-.702-2.89-1.787-5.434-3.219-7.741l.065.112c-1.379-2.456-3.027-4.562-4.948-6.384l-.012-.011c-2.334-2.074-4.225-2.54-4.998-2.094-.473.385-.784.952-.825 1.593v.007c-.055.39-.086.84-.086 1.298 0 .757.086 1.493.248 2.201l-.013-.066c.673 2.952 1.747 5.559 3.182 7.924l-.066-.117z"></path>
    </symbol>
    <symbol id="icon-redux" viewBox="0 0 24 24">
      <path d="M16.633 16.504c.869-.075 1.543-.84 1.499-1.754-.046-.914-.795-1.648-1.708-1.648h-.061c-.943.031-1.678.824-1.648 1.769.03.479.226.869.494 1.153-1.048 2.038-2.621 3.536-5.004 4.795-1.603.838-3.296 1.154-4.944.929-1.378-.194-2.456-.81-3.116-1.798-.988-1.499-1.078-3.116-.255-4.734.601-1.169 1.499-2.023 2.099-2.443-.15-.389-.33-1.048-.42-1.542-4.436 3.177-3.985 7.521-2.637 9.574 1.004 1.498 3.057 2.456 5.304 2.456.599 0 1.229-.044 1.843-.194 3.896-.749 6.847-3.086 8.54-6.532l.014-.031zM21.981 12.758c-2.321-2.727-5.738-4.225-9.634-4.225h-.51c-.253-.554-.837-.899-1.497-.899h-.045c-.943 0-1.678.81-1.647 1.753.03.898.794 1.648 1.708 1.648h.074c.675-.03 1.259-.45 1.498-1.049h.555c2.309 0 4.495.674 6.488 1.992 1.527 1.004 2.622 2.322 3.236 3.896.538 1.288.509 2.547-.045 3.597-.854 1.647-2.293 2.517-4.195 2.517-1.199 0-2.367-.375-2.967-.644-.359.298-.959.793-1.394 1.093 1.318.598 2.652.943 3.94.943 2.922 0 5.093-1.647 5.918-3.236.898-1.798.824-4.824-1.469-7.416l-.014.03zM6.49 17.042c.029.899.793 1.648 1.708 1.648h.06c.959-.03 1.693-.823 1.648-1.768 0-.899-.779-1.647-1.693-1.647h-.061c-.06 0-.149 0-.225.029-1.243-2.098-1.768-4.346-1.572-6.771.119-1.828.719-3.417 1.797-4.735.899-1.124 2.592-1.679 3.746-1.708 3.236-.061 4.585 3.971 4.689 5.574l1.498.449c-.345-4.914-3.4-7.492-6.322-7.492-2.742 0-5.273 1.993-6.293 4.915-1.393 3.896-.479 7.641 1.229 10.638-.149.195-.239.539-.209.868z"></path>
    </symbol>
    <symbol id="icon-node" viewBox="0 0 24 24">
      <path d="M11.998,24c-0.321,0-0.641-0.084-0.922-0.247l-2.936-1.737c-0.438-0.245-0.224-0.332-0.08-0.383 c0.585-0.203,0.703-0.25,1.328-0.604c0.065-0.037,0.151-0.023,0.218,0.017l2.256,1.339c0.082,0.045,0.197,0.045,0.272,0l8.795-5.076 c0.082-0.047,0.134-0.141,0.134-0.238V6.921c0-0.099-0.053-0.192-0.137-0.242l-8.791-5.072c-0.081-0.047-0.189-0.047-0.271,0 L3.075,6.68C2.99,6.729,2.936,6.825,2.936,6.921v10.15c0,0.097,0.054,0.189,0.139,0.235l2.409,1.392 c1.307,0.654,2.108-0.116,2.108-0.89V7.787c0-0.142,0.114-0.253,0.256-0.253h1.115c0.139,0,0.255,0.112,0.255,0.253v10.021 c0,1.745-0.95,2.745-2.604,2.745c-0.508,0-0.909,0-2.026-0.551L2.28,18.675c-0.57-0.329-0.922-0.945-0.922-1.604V6.921 c0-0.659,0.353-1.275,0.922-1.603l8.795-5.082c0.557-0.315,1.296-0.315,1.848,0l8.794,5.082c0.57,0.329,0.924,0.944,0.924,1.603 v10.15c0,0.659-0.354,1.273-0.924,1.604l-8.794,5.078C12.643,23.916,12.324,24,11.998,24z M19.099,13.993 c0-1.9-1.284-2.406-3.987-2.763c-2.731-0.361-3.009-0.548-3.009-1.187c0-0.528,0.235-1.233,2.258-1.233 c1.807,0,2.473,0.389,2.747,1.607c0.024,0.115,0.129,0.199,0.247,0.199h1.141c0.071,0,0.138-0.031,0.186-0.081 c0.048-0.054,0.074-0.123,0.067-0.196c-0.177-2.098-1.571-3.076-4.388-3.076c-2.508,0-4.004,1.058-4.004,2.833 c0,1.925,1.488,2.457,3.895,2.695c2.88,0.282,3.103,0.703,3.103,1.269c0,0.983-0.789,1.402-2.642,1.402 c-2.327,0-2.839-0.584-3.011-1.742c-0.02-0.124-0.126-0.215-0.253-0.215h-1.137c-0.141,0-0.254,0.112-0.254,0.253 c0,1.482,0.806,3.248,4.655,3.248C17.501,17.007,19.099,15.91,19.099,13.993z"></path>
    </symbol>
    <symbol id="icon-express" viewBox="0 0 24 24">
      <path d="M24 18.588a1.529 1.529 0 0 1-1.895-.72l-3.45-4.771-.5-.667-4.003 5.444a1.466 1.466 0 0 1-1.802.708l5.158-6.92-4.798-6.251a1.595 1.595 0 0 1 1.9.666l3.576 4.83 3.596-4.81a1.435 1.435 0 0 1 1.788-.668L21.708 7.9l-2.522 3.283a.666.666 0 0 0 0 .994l4.804 6.412zM.002 11.576l.42-2.075c1.154-4.103 5.858-5.81 9.094-3.27 1.895 1.489 2.368 3.597 2.275 5.973H1.116C.943 16.447 4.005 19.009 7.92 17.7a4.078 4.078 0 0 0 2.582-2.876c.207-.666.548-.78 1.174-.588a5.417 5.417 0 0 1-2.589 3.957 6.272 6.272 0 0 1-7.306-.933 6.575 6.575 0 0 1-1.64-3.858c0-.235-.08-.455-.134-.666A88.33 88.33 0 0 1 0 11.577zm1.127-.286h9.654c-.06-3.076-2.001-5.258-4.59-5.278-2.882-.04-4.944 2.094-5.071 5.264z"></path>
    </symbol>
    <symbol id="icon-mongo" viewBox="-6.5 0 24 24">
      <path d="m10.562 9.518c-1.263-5.56-4.242-7.387-4.562-8.086-.262-.408-.508-.879-.711-1.372l-.022-.06c0 .019 0 .031-.005.049v.013.039.015.026.026.012s0 .009 0 .013v-.001.021c0 .003.001.007.001.011s0 .007-.001.011v.02.032l-.009.05v.01.006s0 .004 0 .006v.041h-.005v.016h-.036v.057h-.006v.046h-.024v.038.003s0 .002 0 .003v.01.005s0 .003 0 .005l-.023.017-.005.007v.022h-.005v.018h-.006v.045h-.006v.019h-.005v.018h-.005v.022h-.045v.015h-.005v.019h-.005v.015h-.006v.023h-.005v.006s0 0 0 0v.003s0 .002 0 .004c-.019.009-.035.021-.049.034-.003.003-.006.006-.009.01s0 0 0 0v.058h-.005v-.008h-.005v.01h-.005v.008h-.005v.022h-.061v.01h-.01v.02h-.03v.01h-.005v.006h-.01v.01h-.03v.006h-.005v.058h-.006v.01h-.005v.006h-.005v.006c-.004.006-.009.011-.014.016l-.012.01c-.014.01-.027.021-.039.032-.008.006-.015.011-.022.017l-.049.039-.074.062c-.057.047-.117.1-.186.159-.169.148-.37.338-.6.568l-.015.015c-2.234 2.374-3.637 5.553-3.729 9.059v.018c-.008.155-.013.336-.013.518 0 .22.007.439.02.656l-.001-.03v.009c.112 1.765.628 3.389 1.456 4.808l-.028-.052c.308.54.614.999.948 1.435l-.022-.03c.727.963 1.555 1.795 2.483 2.503l.031.023c.255.766.403 1.647.403 2.563 0 .076-.001.152-.003.227v-.011l.644.215c-.027-.303-.043-.655-.043-1.01 0-.533.035-1.058.102-1.572l-.006.061c.065-.257.186-.48.35-.664l-.001.002c.298-.213.559-.424.806-.651l-.006.006c.018-.019.028-.036.044-.054 2.227-2.09 3.614-5.051 3.614-8.337 0-.801-.082-1.582-.239-2.337l.013.074z"></path>
    </symbol>
    <symbol id="icon-postgres" viewBox="0 0 24 24">
      <path d="M17.128 0a10.134 10.134 0 0 0-2.755.403l-.063.02A10.922 10.922 0 0 0 12.6.258C11.422.238 10.41.524 9.594 1 8.79.721 7.122.24 5.364.336 4.14.403 2.804.775 1.814 1.82.827 2.865.305 4.482.415 6.682c.03.607.203 1.597.49 2.879s.69 2.783 1.193 4.152c.503 1.37 1.054 2.6 1.915 3.436.43.419 1.022.771 1.72.742.49-.02.933-.235 1.315-.552.186.245.385.352.566.451.228.125.45.21.68.266.413.103 1.12.241 1.948.1.282-.047.579-.139.875-.27.011.33.024.653.037.98.041 1.036.067 1.993.378 2.832.05.137.187.843.727 1.466.54.624 1.598 1.013 2.803.755.85-.182 1.931-.51 2.649-1.532.71-1.01 1.03-2.459 1.093-4.809.016-.127.035-.235.055-.336l.169.015h.02c.907.041 1.891-.088 2.713-.47.728-.337 1.279-.678 1.68-1.283.1-.15.21-.331.24-.643s-.149-.8-.446-1.025c-.595-.452-.969-.28-1.37-.197a6.27 6.27 0 0 1-1.202.146c1.156-1.947 1.985-4.015 2.458-5.845.28-1.08.437-2.076.45-2.947.013-.871-.058-1.642-.58-2.309C21.36.6 19.067.024 17.293.004c-.055-.001-.11-.002-.165-.001zm-.047.64c1.678-.016 3.822.455 5.361 2.422.346.442.449 1.088.437 1.884-.013.795-.16 1.747-.429 2.79-.522 2.02-1.508 4.375-2.897 6.488a.756.756 0 0 0 .158.086c.29.12.951.223 2.27-.048.332-.07.575-.117.827.075a.52.52 0 0 1 .183.425.704.704 0 0 1-.13.336c-.255.383-.758.746-1.403 1.045-.571.266-1.39.405-2.116.413-.364.004-.7-.024-.985-.113l-.018-.007c-.11 1.06-.363 3.153-.528 4.108-.132.77-.363 1.382-.804 1.84-.44.458-1.063.734-1.901.914-1.038.223-1.795-.017-2.283-.428-.487-.41-.71-.954-.844-1.287-.092-.23-.14-.528-.186-.926-.046-.398-.08-.885-.103-1.434a51.426 51.426 0 0 1-.03-2.523 3.061 3.061 0 0 1-1.552.76c-.689.117-1.304.002-1.671-.09a2.276 2.276 0 0 1-.52-.201c-.17-.091-.332-.194-.44-.397a.56.56 0 0 1-.057-.381.61.61 0 0 1 .218-.331c.198-.161.46-.251.855-.333.719-.148.97-.249 1.123-.37.13-.104.277-.314.537-.622a1.16 1.16 0 0 1-.003-.041 2.96 2.96 0 0 1-1.33-.358c-.15.158-.916.968-1.85 2.092-.393.47-.827.74-1.285.759-.458.02-.872-.211-1.224-.552-.703-.683-1.264-1.858-1.753-3.186-.488-1.328-.885-2.807-1.167-4.067-.283-1.26-.45-2.276-.474-2.766-.105-2.082.382-3.485 1.217-4.37.836-.885 1.982-1.22 3.099-1.284 2.005-.115 3.909.584 4.294.734.742-.504 1.698-.818 2.892-.798a7.39 7.39 0 0 1 1.681.218l.02-.009a6.854 6.854 0 0 1 .739-.214A9.626 9.626 0 0 1 17.08.642zm.152.67h-.146a8.74 8.74 0 0 0-1.704.192c1.246.552 2.187 1.402 2.85 2.25a8.44 8.44 0 0 1 1.132 1.92c.11.264.184.487.226.66.021.087.035.16.04.236.002.038.004.077-.012.144 0 .003-.005.01-.006.013.03.876-.187 1.47-.213 2.306-.02.606.135 1.318.173 2.095.036.73-.052 1.532-.526 2.319.04.048.076.096.114.144 1.254-1.975 2.158-4.16 2.64-6.023.258-1.003.395-1.912.407-2.632.01-.72-.124-1.242-.295-1.46-1.342-1.716-3.158-2.153-4.68-2.165zm-4.79.256c-1.182.003-2.03.36-2.673.895-.663.553-1.108 1.31-1.4 2.085-.347.92-.466 1.81-.513 2.414l.013-.008c.357-.2.826-.4 1.328-.516.502-.115 1.043-.151 1.533.039s.895.637 1.042 1.315c.704 3.257-.219 4.468-.559 5.382a9.61 9.61 0 0 0-.331 1.013c.043-.01.086-.022.129-.026.24-.02.428.06.54.108.342.142.577.44.704.78.033.089.057.185.071.284a.336.336 0 0 1 .02.127 55.14 55.14 0 0 0 .013 3.738c.023.538.057 1.012.1 1.386.043.373.104.657.143.753.128.32.315.739.653 1.024.338.284.823.474 1.709.284.768-.165 1.242-.394 1.559-.723.316-.329.505-.787.626-1.488.181-1.05.545-4.095.589-4.668-.02-.432.044-.764.182-1.017.142-.26.362-.419.552-.505.095-.043.184-.072.257-.093a5.956 5.956 0 0 0-.243-.325 4.456 4.456 0 0 1-.666-1.099 8.296 8.296 0 0 0-.257-.483c-.133-.24-.301-.54-.477-.877-.352-.675-.735-1.493-.934-2.29-.198-.796-.227-1.62.281-2.201.45-.516 1.24-.73 2.426-.61-.035-.105-.056-.192-.115-.332a7.817 7.817 0 0 0-1.041-1.764c-1.005-1.285-2.632-2.559-5.146-2.6h-.115zm-6.642.052c-.127 0-.254.004-.38.011-1.01.058-1.965.351-2.648 1.075-.684.724-1.134 1.911-1.036 3.876.019.372.181 1.414.459 2.652.277 1.238.67 2.695 1.142 3.982.473 1.287 1.046 2.407 1.59 2.937.274.265.512.372.728.363.217-.01.478-.135.797-.518a43.244 43.244 0 0 1 1.81-2.048 3.497 3.497 0 0 1-1.167-3.15c.103-.739.117-1.43.105-1.976-.012-.532-.05-.886-.05-1.107a.336.336 0 0 1 0-.019v-.005l-.001-.006v-.001a9.893 9.893 0 0 1 .592-3.376c.28-.744.697-1.5 1.322-2.112-.614-.202-1.704-.51-2.884-.568a7.603 7.603 0 0 0-.38-.01zM18.199 6.9c-.679.009-1.06.184-1.26.413-.283.325-.31.895-.134 1.597.175.703.537 1.489.877 2.142.17.327.335.621.468.86.134.24.232.41.292.555.055.134.116.252.178.362.263-.555.31-1.1.283-1.668-.035-.703-.198-1.422-.174-2.15.027-.851.195-1.405.21-2.063a5.793 5.793 0 0 0-.74-.048zm-8.234.115a2.82 2.82 0 0 0-.616.074 4.665 4.665 0 0 0-1.153.449 2.417 2.417 0 0 0-.349.228l-.022.02c.006.146.035.5.047 1.021.012.57-.002 1.297-.112 2.084-.239 1.71 1.002 3.126 2.46 3.128.085-.351.225-.707.365-1.082.406-1.094 1.205-1.892.532-5.006-.11-.51-.328-.716-.628-.832a1.474 1.474 0 0 0-.524-.084zm7.917.204h.05c.066.002.127.009.18.022.054.012.1.03.138.055a.164.164 0 0 1 .075.11l-.001.008h.001-.001a.24.24 0 0 1-.035.135.668.668 0 0 1-.11.15.677.677 0 0 1-.386.212.59.59 0 0 1-.41-.103.608.608 0 0 1-.13-.118.26.26 0 0 1-.063-.127.17.17 0 0 1 .042-.128.384.384 0 0 1 .117-.09c.096-.054.226-.094.373-.116.055-.008.109-.012.16-.013zm-7.82.168c.053 0 .109.005.166.013.153.021.289.062.393.122a.446.446 0 0 1 .133.106.223.223 0 0 1 .054.17.302.302 0 0 1-.075.154.649.649 0 0 1-.143.13.64.64 0 0 1-.448.113.728.728 0 0 1-.42-.228.71.71 0 0 1-.118-.164.28.28 0 0 1-.041-.177c.015-.108.104-.164.191-.195a.866.866 0 0 1 .307-.04zm9.06 7.343l-.003.001c-.147.053-.268.075-.37.12a.452.452 0 0 0-.239.214c-.063.115-.117.319-.101.666a.51.51 0 0 0 .148.07c.171.052.458.086.778.081.638-.007 1.423-.156 1.84-.35a3.95 3.95 0 0 0 .943-.615h-.001c-1.393.288-2.18.211-2.663.012a1.315 1.315 0 0 1-.332-.2zm-8.031.094h-.021c-.053.005-.13.023-.279.188-.348.39-.47.635-.757.864-.287.228-.66.35-1.405.503-.236.048-.371.101-.461.144.029.024.026.03.07.053.109.06.249.113.362.142.32.08.846.173 1.395.08.549-.094 1.12-.357 1.607-1.04.084-.118.093-.292.024-.479-.07-.187-.223-.348-.331-.393a.653.653 0 0 0-.204-.06z"></path>
    </symbol>
  </defs>
</svg>
